<?xml version="1.0" encoding="UTF-8" standalone="no"?>
<!-- Created with Inkscape (http://www.inkscape.org/) -->

<svg
   xmlns:dc="http://purl.org/dc/elements/1.1/"
   xmlns:cc="http://creativecommons.org/ns#"
   xmlns:rdf="http://www.w3.org/1999/02/22-rdf-syntax-ns#"
   xmlns:svg="http://www.w3.org/2000/svg"
   xmlns="http://www.w3.org/2000/svg"
   xmlns:sodipodi="http://sodipodi.sourceforge.net/DTD/sodipodi-0.dtd"
   xmlns:inkscape="http://www.inkscape.org/namespaces/inkscape"
   width="338.13"
   height="330.26776"
   viewBox="0 0 89.463565 87.383343"
   version="1.1"
   id="svg8"
   inkscape:version="0.92.4 (5da689c313, 2019-01-14)"
   sodipodi:docname="libra icon.svg">
  <defs
     id="defs2" />
  <sodipodi:namedview
     id="base"
     pagecolor="#ffffff"
     bordercolor="#666666"
     borderopacity="1.0"
     inkscape:pageopacity="0.0"
     inkscape:pageshadow="2"
     inkscape:zoom="0.7"
     inkscape:cx="361.07065"
     inkscape:cy="-23.341011"
     inkscape:document-units="mm"
     inkscape:current-layer="layer1"
     showgrid="false"
     inkscape:window-width="1920"
     inkscape:window-height="1017"
     inkscape:window-x="-8"
     inkscape:window-y="176"
     inkscape:window-maximized="1"
     units="px" />
  <metadata
     id="metadata5">
    <rdf:RDF>
      <cc:Work
         rdf:about="">
        <dc:format>image/svg+xml</dc:format>
        <dc:type
           rdf:resource="http://purl.org/dc/dcmitype/StillImage" />
        <dc:title></dc:title>
      </cc:Work>
    </rdf:RDF>
  </metadata>
  <g
     inkscape:label="Layer 1"
     inkscape:groupmode="layer"
     id="layer1"
     transform="translate(72.247797,-31.903948)">
    <g
       id="g829"
       transform="matrix(0.26458333,0,0,0.26458333,-72.247797,31.904728)"
       style="fill:#42318c;fill-opacity:1">
      <path
         id="path815"
         d="m 314.82,292.65 a 192,192 0 0 0 23.31,-32.92 L 298.68,240.09 A 120.78,120.78 0 0 1 278,266 c -11,10.21 -22.7,16.16 -34.61,17.68 -23,2.94 -39.07,-4.17 -62.51,-19.21 -24.63,-15.8 -52.54,-33.71 -92.15,-28.65 -24,3.08 -46.06,15.66 -65.44,37.39 A 191.89,191.89 0 0 0 0,306.13 l 39.44,19.64 a 121.7,121.7 0 0 1 20.64,-25.93 c 10.88,-10.07 22.52,-16 34.62,-17.51 a 79.51,79.51 0 0 1 10,-0.66 c 18.14,0 32.71,7 52.52,19.71 23,14.77 51.66,33.15 92.17,28 24.48,-3.16 46.5,-15.51 65.43,-36.73 z m 0,-117.48 a 192,192 0 0 0 23.31,-32.92 L 298.68,122.61 A 121,121 0 0 1 278,148.53 c -11,10.21 -22.7,16.16 -34.61,17.68 -23,2.93 -39.07,-4.17 -62.51,-19.21 -24.63,-15.8 -52.54,-33.71 -92.15,-28.65 -24,3.08 -46.06,15.65 -65.44,37.39 A 191.5,191.5 0 0 0 0,188.65 l 39.44,19.64 A 122,122 0 0 1 60.08,182.35 C 71,172.29 82.6,166.4 94.7,164.85 a 79.51,79.51 0 0 1 10,-0.66 c 18.14,0 32.71,7 52.52,19.71 23,14.77 51.66,33.15 92.17,28 24.48,-3.16 46.5,-15.51 65.43,-36.73 z m 0,-117.48 A 192,192 0 0 0 338.13,24.77 L 298.68,5.13 A 121,121 0 0 1 278,31.05 c -11,10.21 -22.7,16.16 -34.61,17.68 -23,2.93 -39.07,-4.17 -62.51,-19.21 C 156.28,13.72 128.37,-4.19 88.76,0.87 64.72,4 42.7,16.52 23.32,38.26 A 191.5,191.5 0 0 0 0,71.17 L 39.44,90.81 A 122,122 0 0 1 60.08,64.87 C 71,54.81 82.6,48.92 94.7,47.37 a 79.51,79.51 0 0 1 10,-0.66 c 18.14,0 32.71,7 52.52,19.71 23,14.77 51.64,33.14 92.17,28 24.48,-3.16 46.5,-15.51 65.43,-36.73 z"
         style="color:#42318c;fill:#42318c;fill-opacity:1"
         inkscape:connector-curvature="0" />
    </g>
  </g>
</svg>
