<?xml version="1.0" standalone="no"?>
<!DOCTYPE svg PUBLIC "-//W3C//DTD SVG 20010904//EN"
        "http://www.w3.org/TR/2001/REC-SVG-20010904/DTD/svg10.dtd">
<svg version="1.0" xmlns="http://www.w3.org/2000/svg"
     width="470pt" height="406pt" viewBox="0 0 470 406"
     preserveAspectRatio="xMidYMid meet">
    <g transform="translate(0.000000,406.000000) scale(0.100000,-0.100000)"
       fill="#42318c" stroke="none">
        <path d="M1233 3402 c-612 -306 -1113 -560 -1113 -564 0 -4 72 -55 160 -112
                 l160 -105 0 -1013 0 -1013 155 -78 c85 -42 157 -77 160 -77 3 0 5 443 5 985 0
                 542 2 985 4 985 3 0 360 -227 795 -505 434 -278 794 -505 800 -505 8 0 597
                 380 1963 1265 153 99 276 184 275 188 -3 11 -2222 1107 -2239 1106 -7 0 -514
                 -251 -1125 -557z"/>
        <path d="M1000 2034 c0 -5 -18 -180 -40 -389 -22 -208 -40 -389 -40 -401 0
                 -18 25 -37 123 -95 161 -97 541 -351 692 -464 236 -176 431 -350 563 -500 l62
                 -70 62 70 c136 155 325 322 578 510 169 126 502 349 678 454 67 40 122 78 122
                 84 2 38 -95 807 -101 807 -4 0 -307 -196 -673 -436 l-666 -436 -666 432 c-366
                 237 -672 434 -680 437 -8 3 -14 1 -14 -3z"/>
    </g>
</svg>
