<?xml version="1.0" encoding="utf-8"?>
<!-- Svg Vector Icons : http://www.onlinewebfonts.com/icon -->
<!DOCTYPE svg PUBLIC "-//W3C//DTD SVG 1.1//EN" "http://www.w3.org/Graphics/SVG/1.1/DTD/svg11.dtd">
<svg version="1.1" xmlns="http://www.w3.org/2000/svg" xmlns:xlink="http://www.w3.org/1999/xlink" x="0px" y="0px"
     viewBox="0 0 1000 1000" enable-background="new 0 0 1000 1000" xml:space="preserve">
    <g>
        <g fill="#42318c" transform="translate(0.000000,511.000000) scale(0.100000,-0.100000)">
        <path d="M534.9,3760.5c-120.5-31.6-221.3-96.8-304.3-193.7c-140.3-162-130.4,55.3-130.4-3177.4v-2918.6l61.3-120.5c33.6-67.2,96.8-152.2,140.3-189.7c152.1-130.4,142.3-130.4,1323.9-130.4h1063.1v-296.4v-296.4h2311.9h2311.9v296.4v296.4h1063.1c1177.7,0,1171.8,0,1322,126.5c41.5,37.5,102.8,114.6,134.4,171.9l59.3,106.7l5.9,2934.4c5.9,3276.2,15.8,3037.1-136.3,3209.1c-43.5,49.4-128.4,112.6-191.7,144.2l-112.6,55.3l-4416.4,4C1592.1,3784.2,604,3780.2,534.9,3760.5z M9472.4,3446.3c31.6-19.8,73.1-63.2,92.9-98.8c39.5-61.3,39.5-122.5,39.5-2944.3c0-3181.4,9.9-2956.1-124.5-3037.1c-61.3-39.5-134.4-39.5-4475.7-39.5c-4874.9,0-4487.6-9.9-4568.6,124.5c-39.5,61.3-39.5,122.5-39.5,2944.3c0,3084.6-4,2934.4,94.8,3023.3c21.7,19.8,65.2,43.5,94.9,53.4c31.6,7.9,2031.3,15.8,4444.1,13.8C9223.5,3481.9,9421.1,3479.9,9472.4,3446.3z M7012.3-3122l5.9-144.2H5000.7H2985.1v134.4c0,75.1,5.9,142.3,13.8,148.2c5.9,7.9,910.9,11.9,2009.6,9.9l1997.8-5.9L7012.3-3122z"/>
            <path fill="#8fcfba"
                  d="M2566.2,2845.6l-213.4-29.6v-640.2v-640.2H2501h148.2v511.8V2559l132.4,15.8c203.5,21.7,663.9-5.9,879.3-51.4c347.8-73.1,750.9-235.1,1069-430.8l112.6-69.2v-164v-166h148.2H5139v168v168l112.6,73.1c268.7,171.9,713.3,349.7,1049.3,420.9c215.4,45.4,675.8,73.1,879.3,51.4l132.4-15.8v-511.8v-511.8h148.2H7609v642.2c0,499.9-5.9,642.2-23.7,642.2c-13.8,0-118.6,13.8-233.2,29.6c-737.1,100.8-1491.9-55.3-2177.6-450.5l-191.7-112.6L4809,2389.1c-326,193.6-727.2,345.8-1124.4,430.8C3417.9,2877.2,2864.6,2889,2566.2,2845.6z"/>
            <path fill="#706aaf"
                  d="M6694.1,1067.1c-7.9-5.9-13.8-47.4-13.8-88.9v-75.1h128.4h128.4v88.9v88.9h-114.6C6759.4,1081,6700.1,1075.1,6694.1,1067.1z"/>
            <path fill="#42318c"
                    d="M1266,577.1V112.7h365.6h365.6v108.7v106.7l-241.1,5.9l-243,5.9v69.2v69.2l223.3,5.9l221.3,5.9V587v98.8h-227.2h-227.2v69.2v69.2h247h247v108.7v108.7h-365.6H1266V577.1z"/>
            <path fill="#42318c"
                  d="M2748,577.1V112.7h345.8h345.8v118.6v118.6h-217.4h-217.4v345.8v345.8h-128.4H2748V577.1z"/>
            <path fill="#42318c"
                  d="M3745.9,812.2c-88.9-45.4-130.4-88.9-169.9-175.9c-83-179.8-19.8-393.2,140.3-478.2c148.2-79,369.5-53.3,464.4,51.4c37.5,43.5,37.5,43.5-19.8,90.9c-69.2,55.3-85,57.3-136.3,19.8c-59.3-45.4-156.1-37.5-205.5,15.8c-23.7,25.7-43.5,51.4-43.5,59.3c0,7.9,106.7,13.8,237.1,13.8h237.1v75.1c-2,140.3-100.8,292.5-223.3,337.9C3945.5,853.7,3815.1,847.8,3745.9,812.2z M3973.2,626.5c73.1-73.1,51.4-98.8-79-98.8c-92.9,0-118.6,5.9-118.6,29.6c0,43.5,73.1,108.7,118.6,108.7C3915.9,666,3951.4,648.2,3973.2,626.5z"/>
            <path fill="#42318c"
                  d="M4536.3,822.1c-106.7-25.7-114.6-39.5-86.9-132.4c21.7-73.1,27.7-79,71.1-61.3c122.5,45.4,282.6,5.9,282.6-71.1c0-19.8-23.7-23.7-106.7-15.8c-203.5,21.7-328-63.2-328-223.3c0-128.4,61.3-189.7,203.5-201.6c85-5.9,124.5,0,164,25.7c47.4,29.6,53.3,29.6,75.1,0c17.8-23.7,49.4-29.6,130.4-25.7l108.7,5.9v247c0,282.6-19.8,353.7-118.6,415C4854.5,832,4652.9,851.8,4536.3,822.1z M4793.2,359.7c0-45.4-13.8-65.2-53.4-85c-69.2-31.6-134.4-2-134.4,61.2c0,65.2,39.5,94.9,118.6,88.9C4787.3,419,4793.2,413.1,4793.2,359.7z"/>
            <path fill="#42318c"
                  d="M5583.6,820.1c-21.7-11.8-55.3-39.5-73.1-63.2l-35.6-41.5v55.3c0,53.4-2,53.4-128.4,53.4h-128.4V468.4V110.8l124.5,5.9l122.5,5.9l9.9,179.8c11.8,203.5,27.6,233.2,140.3,268.7l77.1,21.7v126.5C5692.3,853.7,5674.5,869.6,5583.6,820.1z"/>
            <path fill="#42318c"
                  d="M6138.9,794.5c-67.2-45.4-71.1-45.4-71.1-9.9s-13.8,39.5-128.4,39.5h-128.4l4-349.8l5.9-351.7l124.5-5.9l122.5-5.9V336c0,201.6,4,229.2,39.5,260.8c31.6,29.6,51.4,33.6,94.8,17.8c53.4-17.8,53.4-19.8,63.2-254.9l9.9-237.1h118.6h118.6l5.9,262.8c4,211.4-2,274.7-27.6,332C6429.4,845.8,6269.3,883.4,6138.9,794.5z"/>
            <path fill="#42318c"
                  d="M7443,794.5c-67.2-45.4-71.1-45.4-71.1-9.9s-13.8,39.5-128.4,39.5H7115l4-349.8l5.9-351.7h118.6H7362l9.9,233.2c9.9,239.1,21.7,270.7,98.8,270.7s88.9-31.6,98.8-270.7l9.9-233.2H7698h118.6l5.9,247c4,185.7-2,266.8-25.7,326C7741.4,841.9,7579.4,887.3,7443,794.5z"/>
            <path fill="#42318c"
                  d="M8122.8,800.4c-98.8-67.2-142.3-140.3-154.1-249c-11.9-128.4,47.4-264.8,138.3-320.1c88.9-53.4,249-53.4,318.1,0c63.2,49.4,73.1,49.4,73.1,0c0-23.7-21.7-63.2-49.4-88.9c-37.5-39.5-67.2-49.4-148.2-49.4c-55.3,0-130.4,13.8-168,29.6l-69.2,27.7l-39.5-79l-41.5-79l75.1-33.6C8111-65.1,8188-75,8334.2-75c217.4,0,260.8,15.8,349.8,136.3c37.5,49.4,41.5,86.9,47.4,409l5.9,353.7h-118.6c-94.8,0-120.5-5.9-120.5-29.6c0-37.5-5.9-37.5-83,9.9C8326.3,857.7,8205.8,855.7,8122.8,800.4z M8458.7,606.7c21.7-21.7,39.5-61.3,39.5-88.9c0-65.2-83-148.2-148.2-148.2c-57.3,0-148.2,79-148.2,128.4c0,39.5,37.5,112.6,67.2,132.4C8312.5,660.1,8419.2,646.3,8458.7,606.7z"/>
            <path fill="#42318c"
                  d="M6700.1,468.4V112.7h118.6h118.6v355.7v355.7h-118.6h-118.6V468.4z"/>
            <path fill="#42318c"
                  d="M2149.3,632.4c-7.9-5.9-13.8-55.3-13.8-108.7v-94.8h217.4h217.4v108.7v108.7h-203.5C2254,646.3,2155.2,640.3,2149.3,632.4z"/>
            <path fill="#8fcfba"
                  d="M2352.8-736.9c0-474.2,4-533.5,31.6-533.5c17.8,0,142.3,13.8,278.6,29.6c298.4,37.5,594.8,17.8,910.9-61.3c466.3-114.6,831.9-312.2,1225.1-660l183.8-162l128.4,116.6c318.2,282.6,669.9,503.9,988,618.5l120.5,43.5l-41.5,136.3c-23.7,75.1-49.4,136.4-61.3,136.4c-9.9,0-112.6-39.5-227.2-85c-219.3-90.9-403.1-191.7-612.6-337.9l-128.4-90.9l-9.9,322.1l-9.9,320.1l-142.3,5.9l-144.2,5.9v-330c0-371.5,9.9-357.7-164-227.2c-339.9,252.9-826,450.5-1298.3,527.6c-104.7,17.8-308.3,31.6-458.4,31.6h-272.7V-567v363.6H2501h-148.2V-736.9z"/>
            <path fill="#8fcfba"
                  d="M6231.7-310.1c7.9-19.8,144.2-446.6,302.3-946.5c160.1-501.9,296.4-924.8,302.3-938.6c9.9-15.8,90.9,81,221.3,260.8c112.6,158.1,211.4,288.5,217.4,288.5c5.9,0,102.8-102.8,215.4-227.2l201.6-227.2l73.1,57.3c39.5,31.6,86.9,75.1,108.7,96.8c41.5,47.4,51.4,31.6-239.1,353.7l-144.2,158.1l316.2,185.7c173.9,100.8,308.3,189.7,300.4,197.6c-9.9,9.9-1650,683.7-1859.5,764.7C6225.8-278.5,6221.9-284.5,6231.7-310.1z M7087.4-926.7c221.3-94.8,403.1-177.8,403.1-183.8c0-5.9-69.2-51.4-154.1-98.8c-132.4-75.1-168-106.7-272.7-252.9l-122.5-168l-140.3,422.9c-144.2,432.7-150.2,450.5-128.4,450.5C6680.3-756.7,6868-833.8,7087.4-926.7z"/></g></g>
</svg>
