<svg width="464" height="450" viewBox="0 0 464 450" fill="none" xmlns="http://www.w3.org/2000/svg">
<path d="M449.577 71.8586C441.612 67.2018 428.613 74.6154 420.544 88.4173C412.475 102.219 412.392 117.183 420.357 121.84C428.323 126.497 441.321 119.083 449.39 105.281C457.459 91.4791 457.543 76.5154 449.577 71.8586Z" fill="#3A7DFF"/>
<path d="M430.491 100.461L434.955 106.726L439.419 95.2767L434.955 99.886L430.491 100.461ZM439.204 95.6359L434.955 106.581L430.705 100.533L434.955 100.028L439.204 95.6359Z" fill="white"/>
<path d="M434.955 82.8176L427.538 100.244L434.955 110.757L442.371 91.6745L434.955 82.8176ZM434.955 86.4185L440.067 92.4685L434.955 97.7975L429.769 98.3735L434.955 86.4185ZM439.491 95.3485L434.955 106.942L434.882 106.869L430.273 100.46L434.882 99.8835L439.491 95.1305V95.3485Z" fill="white"/>
<path opacity="0.33" d="M45.233 364.093C44.5852 364.452 44.2247 365.172 44.2247 365.893C44.2247 366.612 44.5852 367.332 45.233 369.636L182.053 448.631C187.886 450.072 195.159 450.072 201.064 446.687L437.403 310.227C438.051 309.867 438.411 309.148 438.411 308.427C438.411 307.707 438.051 306.987 437.403 306.627L291.077 222.086L45.233 364.093Z" fill="#D8E1FF"/>
<path d="M286.613 188.312L255.575 4.32561L258.096 3.24544L254.351 1.0851C253.631 0.58218 252.622 0.652781 251.471 1.30187L3.61053 144.459C1.59512 145.611 0.0108011 148.635 0.371271 150.725L31.6231 336.152C31.7668 337.087 32.271 337.735 32.9188 338.024L36.5916 340.113L37.2395 336.656L37.0227 336.729L283.372 194.506C285.461 193.426 286.972 190.474 286.613 188.312Z" fill="url(#paint0_linear)"/>
<path d="M4.9781 149.499L0.874194 147.7C0.441878 148.707 0.22759 149.859 0.371282 150.795L31.6231 336.223C31.7668 337.159 32.271 337.807 32.9188 338.096L36.5916 340.184L37.2395 336.728L37.0227 336.8L49.4818 329.599L4.9781 149.499Z" fill="#B3BFE2"/>
<path d="M287.262 196.882L39.3998 339.968C37.4563 341.049 35.8707 340.401 35.5103 338.456L4.25841 153.029C3.89794 150.939 5.41166 147.915 7.49892 146.763L255.361 3.67771C257.304 2.59754 258.889 3.24415 259.249 5.19019L290.501 190.546C290.861 192.706 289.349 195.658 287.262 196.882Z" fill="#ECF0FF"/>
<path d="M252.12 15.416L13.1884 153.388L42.8559 328.015L281.572 190.185L252.12 15.416Z" fill="#9CB7DF"/>
<path d="M443.092 284.664L429.554 291.721L293.958 213.446C291.654 212.149 287.693 212.293 285.101 213.805L51.138 348.827C48.9058 347.603 38.6801 342.633 38.6801 342.633L43.6487 355.523C43.8654 356.099 44.2965 356.603 45.0162 357.036L187.886 439.488C190.189 440.785 194.152 440.641 196.743 439.129L436.107 300.937C437.187 300.291 437.836 299.57 438.124 298.778L443.092 284.664Z" fill="#B3BFE2"/>
<path d="M441.004 286.895L195.664 428.541C193 430.126 188.894 430.271 186.59 428.902L40.1926 344.361C37.8886 342.994 38.176 340.688 40.8393 339.104L286.182 197.531C288.845 195.947 292.95 195.802 295.254 197.171L441.653 281.711C443.956 283.008 443.668 285.312 441.004 286.895Z" fill="url(#paint1_linear)"/>
<path d="M121.636 397.864V395.201C121.636 394.912 121.78 394.84 121.996 394.912L131.502 400.386C131.718 400.53 131.862 400.819 131.862 401.033V403.697C131.862 403.985 131.718 404.058 131.502 403.985L121.996 398.512C121.78 398.44 121.636 398.153 121.636 397.864Z" fill="#0E0947"/>
<path d="M135.822 406.073V403.41C135.822 403.123 135.966 403.049 136.182 403.123L145.688 408.595C145.904 408.739 146.048 409.028 146.048 409.243V411.906C146.048 412.194 145.904 412.267 145.688 412.194L136.182 406.721C136.038 406.65 135.822 406.362 135.822 406.073Z" fill="#0E0947"/>
<path d="M150.584 414.282V411.619C150.584 411.332 150.728 411.259 150.945 411.332L160.449 416.804C160.666 416.948 160.81 417.237 160.81 417.452V420.115C160.81 420.403 160.666 420.476 160.449 420.403L150.945 414.93C150.728 414.859 150.584 414.572 150.584 414.282Z" fill="#0E0947"/>
<path d="M78.3566 336.439L282.22 218.701C283.588 217.909 285.244 217.909 286.613 218.701L359.199 260.684C360.207 261.26 360.207 262.774 359.199 263.42L155.408 381.086C154.04 381.878 152.384 381.878 151.015 381.086L78.2847 339.103C77.2777 338.601 77.2776 337.087 78.3566 336.439Z" fill="#B3BFE2"/>
<path d="M290.069 364.956L345.012 333.199C347.173 331.975 347.173 329.958 345.012 328.735L307.422 307.059C305.263 305.835 301.806 305.835 299.645 307.059L244.701 338.817C242.542 340.04 242.542 342.057 244.701 343.281L282.292 364.956C284.452 366.18 287.908 366.18 290.069 364.956Z" fill="#B3BFE2"/>
<g opacity="0.11">
<g opacity="0.11">
<g opacity="0.11">
<g opacity="0.11">
<g opacity="0.11">
<path opacity="0.11" d="M32.5596 287.544L16.7881 296.69L23.8452 300.722L39.5435 291.648L32.5596 287.544Z" fill="#242993"/>
</g>
</g>
</g>
</g>
</g>
<path d="M452.093 143.955L453.677 144.891C451.877 143.884 449.428 144.028 446.692 145.539L445.108 144.603C447.845 143.091 450.293 142.947 452.093 143.955Z" fill="white"/>
<path d="M309.44 324.414L307.856 323.477C306.056 322.469 304.975 320.237 304.975 317.14L306.56 318.077C306.56 321.173 307.64 323.334 309.44 324.414Z" fill="white"/>
<path d="M306.56 318.077L304.975 317.14L304.76 237.065L306.343 237.928L306.56 318.077Z" fill="white"/>
<path d="M316.136 220.934L314.553 220.07L445.109 144.675L446.693 145.539L316.136 220.934Z" fill="white"/>
<path d="M446.693 145.539C452.093 142.442 456.485 144.962 456.559 151.156L456.774 231.232C456.774 237.497 452.455 245.059 446.982 248.227L316.425 323.694C311.025 326.864 306.56 324.27 306.56 318.078L306.343 237.93C306.343 231.664 310.737 224.104 316.136 220.936L446.693 145.539Z" fill="#D8E1FF"/>
<path d="M306.343 237.928L304.76 236.993C304.76 230.728 309.152 223.167 314.553 219.998L316.136 220.934C310.737 224.103 306.272 231.736 306.343 237.928Z" fill="white"/>
<path d="M333.491 274.511C326.579 278.543 320.962 288.264 320.962 296.258C320.962 304.251 326.651 307.42 333.564 303.458C335.868 302.161 338.028 300.218 339.83 297.913C336.086 297.553 333.492 294.383 333.492 289.056C333.492 283.728 336.013 277.606 339.758 272.926C337.885 272.639 335.795 273.143 333.491 274.511Z" fill="#3A7DFF"/>
<path d="M349.623 266.086C347.319 267.454 345.159 269.398 343.357 271.702C339.613 276.382 337.092 282.504 337.092 287.832C337.092 293.16 339.685 296.329 343.428 296.689C345.301 296.832 347.388 296.329 349.693 294.961C356.607 290.927 362.223 281.278 362.223 273.285C362.153 265.293 356.536 262.125 349.623 266.086Z" fill="#3A7DFF"/>
<path d="M405.286 245.561L377.13 261.908C376.267 262.412 375.547 263.637 375.547 264.644V270.477C375.547 271.484 376.267 271.845 377.13 271.414L405.359 255.139C406.223 254.635 406.942 253.41 406.942 252.403V246.57C406.871 245.491 406.15 245.059 405.286 245.561Z" fill="white"/>
<path d="M441.004 225.11L412.776 241.386C411.911 241.889 411.191 243.114 411.191 244.122V249.955C411.191 250.962 411.911 251.323 412.776 250.891L441.004 234.546C441.867 234.041 442.588 232.816 442.588 231.808V225.976C442.516 225.04 441.867 224.607 441.004 225.11Z" fill="white"/>
<path d="M456.558 163.47L306.343 250.244L306.416 271.846L456.629 185.073L456.558 163.47Z" fill="#0E0947"/>
<path d="M110.278 158.153C90.5217 153.572 68.8326 174.321 61.8341 204.499C54.8357 234.677 65.1782 262.855 84.9346 267.437C104.691 272.018 126.38 251.269 133.379 221.091C140.377 190.913 130.035 162.735 110.278 158.153Z" fill="#3A7DFF"/>
<path d="M103.993 244.771C102.841 244.771 101.69 244.338 100.754 243.474L68.78 212.797C66.9082 210.997 66.8364 208.117 68.6363 206.244C70.4361 204.371 73.3174 204.301 75.1891 206.101L101.185 231.016L115.875 162.174C116.378 159.653 118.899 158.07 121.348 158.573C123.867 159.077 125.452 161.597 124.948 164.046L108.529 241.027C108.169 242.683 106.945 243.98 105.36 244.483C104.928 244.698 104.497 244.771 103.993 244.771Z" fill="white" stroke="white" stroke-width="3.2155" stroke-miterlimit="10"/>
<path d="M134.166 188.169L137.479 186.225" stroke="#9F9DB5" stroke-width="2.1436" stroke-miterlimit="10"/>
<path d="M144.679 182.12L169.884 167.503" stroke="#9F9DB5" stroke-width="2.1436" stroke-miterlimit="10" stroke-dasharray="11.54 11.54"/>
<path d="M173.483 165.486L176.796 163.542" stroke="#9F9DB5" stroke-width="2.1436" stroke-miterlimit="10"/>
<path d="M243.551 147.7L246.863 149.571" stroke="#9F9DB5" stroke-width="2.1436" stroke-miterlimit="10"/>
<path d="M253.992 153.675L335.364 200.124" stroke="#9F9DB5" stroke-width="2.1436" stroke-miterlimit="10" stroke-dasharray="11.32 11.32"/>
<path d="M338.892 202.14L342.277 204.011" stroke="#9F9DB5" stroke-width="2.1436" stroke-miterlimit="10"/>
<path d="M241.895 134.522C238.078 116.376 233.542 86.1311 233.542 86.1311L198.04 107.519L162.539 128.907C162.539 128.907 168.299 158.431 170.892 177.298C175.069 208.262 203.8 200.916 213.738 198.684C222.523 189.681 248.087 164.261 241.895 134.522Z" fill="#3A7DFF"/>
<path d="M210.426 179.312C194.943 182.192 187.958 178.953 186.59 168.654C185.295 159.293 183.35 147.555 181.55 137.833L220.94 114.069C222.525 123.863 224.54 135.528 226.486 144.53C228.499 154.468 223.819 164.767 210.426 179.312Z" fill="white"/>
<path d="M401.832 53.4949C393.867 48.8381 380.868 56.2517 372.799 70.0537C364.73 83.8557 364.647 98.8194 372.612 103.476C380.578 108.133 393.576 100.719 401.645 86.9174C409.714 73.1155 409.798 58.1517 401.832 53.4949Z" fill="#3A7DFF"/>
<path d="M385.484 87.8592L386.996 80.1531L391.172 75.6168L390.453 74.0325L387.571 77.1293L389.732 66.039L387.284 67.4078L384.763 80.1531L380.371 84.9061L381.163 86.4904L384.187 83.1768L382.387 92.2517L395.565 84.6174V82.026L385.484 87.8592Z" fill="white"/>
<path d="M405.822 138.563C397.856 133.906 384.858 141.32 376.789 155.122C368.72 168.924 368.637 183.888 376.602 188.544C384.568 193.201 397.566 185.788 405.635 171.986C413.704 158.184 413.788 143.22 405.822 138.563Z" fill="#3A7DFF"/>
<path d="M396.646 160.014V159.366C398.014 157.71 398.735 155.693 398.735 153.676C398.735 150.653 396.646 149.284 392.614 151.661L384.261 156.486V170.672L380.732 172.76V175.209L384.261 173.121V178.45L392.831 173.481C397.223 170.96 399.311 167.072 399.311 163.544C399.309 161.238 398.229 159.941 396.646 160.014ZM386.635 157.493L392.468 154.11C394.411 152.957 396.284 152.813 396.284 155.262C396.284 157.998 394.7 159.726 392.54 160.951L386.635 164.336V157.493V157.493ZM392.613 171.103L386.636 174.559V171.679L390.165 169.663V167.214L386.636 169.23V166.781L392.686 163.325C394.918 162.029 396.862 161.885 396.862 164.692C396.86 167.79 394.844 169.807 392.613 171.103Z" fill="white"/>
<defs>
<linearGradient id="paint0_linear" x1="0.303126" y1="170.439" x2="286.636" y2="170.439" gradientUnits="userSpaceOnUse">
<stop stop-color="#C0D6FF"/>
<stop offset="0.2978" stop-color="#C5DBFF"/>
<stop offset="0.6488" stop-color="#D3E9FF"/>
<stop offset="1" stop-color="#E9FFFF"/>
</linearGradient>
<linearGradient id="paint1_linear" x1="120.049" y1="388.765" x2="420.973" y2="200.103" gradientUnits="userSpaceOnUse">
<stop stop-color="white"/>
<stop offset="1" stop-color="#ECF0FF"/>
</linearGradient>
</defs>
</svg>
